<svg xmlns="http://www.w3.org/2000/svg" xmlns:xlink="http://www.w3.org/1999/xlink" version="1.1" x="0px" y="0px" viewBox="0 0 32 40" enable-background="new 0 0 32 32" xml:space="preserve"><g><path d="M12,4c-4.4182739,0-8,3.5817261-8,8s3.5817261,8,8,8s8-3.5817261,8-8S16.4182739,4,12,4z M12,19   c-3.8598022,0-7-3.1401978-7-7s3.1401978-7,7-7s7,3.1401978,7,7S15.8598022,19,12,19z"/><path d="M29.7070923,27.2928467l-9-9C20.5118408,18.0975952,20.2559204,18,20,18   c-0.0054321,0-0.010498,0.0030518-0.0159302,0.0031128C21.2440796,16.3300171,22,14.2557983,22,12c0-5.5228882-4.4771729-10-10-10   S2,6.4771118,2,12c0,5.5228271,4.4771729,10,10,10c2.2557983,0,4.3300171-0.7558594,6.0031128-2.0159302   c-0.0042114,0.2612915,0.0903931,0.5236206,0.2897949,0.7230225l9,9C27.4881592,29.9023438,27.7440796,30,28,30   s0.5118408-0.0976562,0.7070923-0.2929077l1-1C30.0976562,28.3165894,30.0976562,27.6834106,29.7070923,27.2928467z M3,12   c0-4.9626465,4.0373535-9,9-9s9,4.0373535,9,9c0,4.9625854-4.0373535,9-9,9S3,16.9625854,3,12z M28,29l-9-9l1-1l9,9L28,29z"/></g><text x="0" y="47" fill="#000000" font-size="5px" font-weight="bold" font-family="'Helvetica Neue', Helvetica, Arial-Unicode, Arial, Sans-serif">Created by Musket</text><text x="0" y="52" fill="#000000" font-size="5px" font-weight="bold" font-family="'Helvetica Neue', Helvetica, Arial-Unicode, Arial, Sans-serif">from the Noun Project</text></svg>